<svg xmlns="http://www.w3.org/2000/svg" width="1200" height="675" viewBox="0 0 1200 675" role="img" aria-labelledby="title desc">
  <title id="title">Tok va kuchlanish masalalari</title><desc id="desc">A = UIt</desc>
  <defs>
    <linearGradient id="bg" x1="0" y1="0" x2="1" y2="1"><stop stop-color="#21110c"/><stop offset="1" stop-color="#101936"/></linearGradient>
    <linearGradient id="accent" x1="0" y1="0" x2="1" y2="1"><stop stop-color="#ef7a45"/><stop offset="1" stop-color="#f6c85f"/></linearGradient>
    <linearGradient id="fire" x1="0" y1="1" x2="0" y2="0"><stop stop-color="#ff563d"/><stop offset=".55" stop-color="#ffb536"/><stop offset="1" stop-color="#fff08b"/></linearGradient>
    <marker id="arrow" markerWidth="12" markerHeight="12" refX="10" refY="5" orient="auto"><path d="M0 0L10 5L0 10z" fill="#f6c85f"/></marker>
    <filter id="glow"><feGaussianBlur stdDeviation="18"/></filter>
  </defs>
  <rect width="1200" height="675" rx="36" fill="url(#bg)"/>
  <circle cx="155" cy="80" r="180" fill="#ef7a45" opacity=".16" filter="url(#glow)"/>
  <circle cx="1030" cy="610" r="210" fill="#f6c85f" opacity=".13" filter="url(#glow)"/>
  <rect x="42" y="42" width="84" height="48" rx="17" fill="url(#accent)"/>
  <text x="84" y="76" text-anchor="middle" fill="#fff" font-family="Inter,Arial,sans-serif" font-size="22" font-weight="800">50</text>
  <text x="155" y="78" fill="#ffffff" font-family="Inter,Arial,sans-serif" font-size="24" font-weight="750">7-SINF FIZIKA</text>
  <g font-family="Inter,Arial,sans-serif"><rect x="140" y="135" width="590" height="390" rx="30" fill="#ffffff0a" stroke="#ffffff24" stroke-width="3"/><path d="M220 240h420v250H220z" fill="none" stroke="#dce5ff" stroke-width="10"/><path d="M220 315h55M275 285v60M300 300v30M640 315h-80" stroke="#ffb75d" stroke-width="9"/><circle cx="430" cy="240" r="45" fill="#5c74ff"/><text x="430" y="255" text-anchor="middle" fill="#eaf0ff" font-size="30" font-weight="650">I</text><text x="430" y="550" text-anchor="middle" fill="#eaf0ff" font-size="42" font-weight="650">A = UIt</text></g>
  <g transform="translate(780 160)" font-family="Inter,Arial,sans-serif">
    <rect width="360" height="360" rx="30" fill="#ffffff0d" stroke="#ffffff26" stroke-width="3"/>
    <text x="38" y="60" fill="#f6c85f" font-size="17" font-weight="800" letter-spacing="2">MAVZUGA OID CHIZMA</text>
    <foreignObject x="36" y="90" width="290" height="140"><div xmlns="http://www.w3.org/1999/xhtml" style="font:800 31px/1.22 Inter,Arial,sans-serif;color:#fff">Tok va kuchlanish masalalari</div></foreignObject>
    <path d="M38 250H322" stroke="#ffffff22" stroke-width="2"/>
    <foreignObject x="36" y="275" width="290" height="65"><div xmlns="http://www.w3.org/1999/xhtml" style="font:650 21px/1.35 Inter,Arial,sans-serif;color:#cbd6f5">A = UIt</div></foreignObject>
  </g>
  <text x="68" y="620" fill="#aebbdc" font-family="Inter,Arial,sans-serif" font-size="18">Idrok • mavzuni tushunish uchun vizual model</text>
</svg>